<?xml version="1.0" encoding="utf-8"?>
<!-- Generator: Adobe Illustrator 24.0.1, SVG Export Plug-In . SVG Version: 6.00 Build 0)  -->
<svg version="1.1" id="Layer_1" xmlns="http://www.w3.org/2000/svg" xmlns:xlink="http://www.w3.org/1999/xlink" x="0px" y="0px"
	 viewBox="0 0 512 512" style="enable-background:new 0 0 512 512;" xml:space="preserve">
<style type="text/css">
	.st0{fill:#EEEDEF;}
</style>
<g>
	<g>
		<g>
			<path class="st0" d="M313.4,107.4c-9.9-11.2-25.4-17.5-42.4-17.5c-30.4,0-57.7,20.8-60.7,46.4c-1.3,11.7,2.3,23,10.2,32
				c9.8,10.9,25.1,17.2,42,17.2c31.2,0,58-20.4,61-46.3C324.9,127.6,321.3,116.3,313.4,107.4z M299.2,136.2
				c-1.5,13.3-18.3,24.6-36.6,24.6c-9.8,0-18.7-3.4-23.7-9c-3.3-3.7-4.7-8-4.2-12.8c1.5-13.1,18.5-24.6,36.2-24.6
				c9.9,0,18.9,3.5,24.1,9.3C297.3,126.3,299.8,130.5,299.2,136.2z"/>
		</g>
	</g>
	<g>
		<g>
			<path class="st0" d="M301.8,369.5c-3.1-2.1-10.3-6.9-4.5-40.4c0.1-0.7,0.7-3.4,1.6-7.6c2.1-9.6,5.9-27.3,10.1-47.2
				c0,0,0-0.1,0-0.1c4.3-21.4,0.9-40.2-9.7-54.2c-9.6-12.7-24.8-20.4-42.8-21.9c-26.6-2.1-54.4,13.7-62.9,29.4
				c-3.9,6.9-2.1,12.5-0.6,15.3c1.8,3.4,4.5,5.3,6.5,6.7c3,2.1,10.1,7.2,3.4,40.6c-0.6,3.1-10,50.7-11.2,57.5c0,0,0,0.1,0,0.1
				c-3.7,21.5,0,40.4,11.2,54c18,21.9,45.5,20.8,46.5,20.8c25.6,0,51.1-15.9,58.9-31.1c3.8-7,1.7-12.6,0.2-15.3
				C306.5,372.7,303.7,370.8,301.8,369.5z M284.9,269.3c-4.1,19.7-8,37.5-10,47c-1.4,6.5-1.7,7.8-1.8,8.3c0,0,0,0.1,0,0.1
				c-6.2,35.9,0.1,51.6,9,60.3c-2.4,2.2-5.8,4.5-9.9,6.7c-8.1,4.2-17.2,6.4-24.8,6c-11.1-0.6-19.9-4.6-25.4-11.5
				c-6.5-8.1-8.6-20-6.1-34.4c1.3-7.3,10.7-54.9,11.1-56.8c0,0,0-0.1,0-0.1c7.2-35.7,1.3-51.5-7.4-60.6c2.5-2.1,5.9-4.4,10.1-6.4
				c8.3-4,17.3-5.9,24.9-5.3c11,0.9,19.7,5.1,25.1,12.2C285.9,243.1,287.8,255,284.9,269.3z"/>
		</g>
	</g>
	<g>
		<g>
			<path class="st0" d="M459.6,395c33.8-40.6,52.4-90.7,52.4-142c0-62.8-26.8-121.7-75.4-166C388.3,43,324.2,18.8,256,18.8
				S123.7,43,75.4,87C26.8,131.3,0,190.2,0,253s26.8,121.7,75.4,166c48.3,44,112.4,68.2,180.6,68.2c42.6,0,84.6-9.7,121.9-28.2
				l89.2,33.4c1.4,0.5,2.9,0.8,4.3,0.8c3,0,6-1.1,8.3-3.3c3.4-3.1,4.8-7.9,3.5-12.4L459.6,395z M381.4,434.1c-3.3-1.2-6.9-1-10,0.6
				c-34.9,18.3-74.9,27.9-115.4,27.9c-127.6,0-231.4-94-231.4-209.6S128.4,43.4,256,43.4s231.4,94,231.4,209.6
				c0,48.1-17.5,93.3-50.7,130.8c-2.8,3.1-3.8,7.5-2.6,11.5l18.7,65.5L381.4,434.1z"/>
		</g>
	</g>
</g>
</svg>
